<svg xmlns="http://www.w3.org/2000/svg" width="40" height="40" viewBox="0 0 64 64"><path d="M64.025 14.981a.972.972 0 0 0-.06-.297 3.994 3.994 0 0 0-3.99-3.9h-15V8.55c0-2.942-2.29-5.335-5.105-5.335H24.08c-2.815 0-5.105 2.393-5.105 5.335v2.235h-15a4 4 0 0 0-4 4v42a4 4 0 0 0 4 4h56a4 4 0 0 0 4-4V15.932c.016-.317.05-.63.05-.95zM20.975 8.55c0-1.838 1.394-3.335 3.106-3.335H39.87c1.711 0 3.105 1.497 3.105 3.335v2.235h-22V8.55zm-17 4.235h15v4.43a1 1 0 1 0 2 0v-4.43h22v4.43a1 1 0 1 0 2 0v-4.43h15c1.103 0 2 .897 2 2v1.402c-.647 8.815-8.282 15.801-17.598 15.801H19.686c-9.738 0-17.661-7.629-17.661-17.007 0-.081-.028-.154-.046-.23a2 2 0 0 1 1.996-1.966zm25.553 21.314h5.007v3.75a.137.137 0 0 1-.136.136h-4.734a.137.137 0 0 1-.137-.137V34.1zm-5.878 0h4.382v3.75c0 .901.73 1.632 1.633 1.632h4.734c.902 0 1.633-.731 1.633-1.633V34.1h4.381v6.145a1.62 1.62 0 0 1-1.618 1.619H25.268a1.62 1.62 0 0 1-1.618-1.619V34.1zm38.325 22.686c0 1.102-.897 2-2 2h-56c-1.103 0-2-.898-2-2V23.149c3.167 6.39 9.905 10.825 17.711 10.825h2.346v6.27a3.237 3.237 0 0 0 3.236 3.237h13.527a3.237 3.237 0 0 0 3.237-3.237v-6.27h2.345c7.714 0 14.385-4.33 17.598-10.598v33.409z"/></svg>