<svg xmlns="http://www.w3.org/2000/svg" width="20" height="20" viewBox="0 0 508.52 508.52"><g fill="#010002"><path d="M254.26 0C113.845 0 0 113.845 0 254.26s113.845 254.26 254.26 254.26 254.26-113.845 254.26-254.26S394.675 0 254.26 0zm0 476.737c-122.68 0-222.477-99.829-222.477-222.477 0-122.68 99.797-222.477 222.477-222.477 122.649 0 222.477 99.797 222.477 222.477 0 122.648-99.892 222.477-222.477 222.477z"/><path d="M365.626 153.128c-10.234-6.738-24.059-3.846-30.797 6.452L227.531 323.546l-51.297-47.483c-9.026-8.327-23.106-7.787-31.465 1.24s-7.787 23.074 1.24 31.433l70.907 65.567.826.54 1.684 1.716 3.051 1.176 3.655 1.494 3.719.604 5.339-.064 2.161-.54 6.229-2.606.985-.667 3.814-2.765 1.78-2.956.095-.127 121.79-186.086c6.74-10.363 3.847-24.156-6.418-30.894z"/></g></svg>