<svg xmlns="http://www.w3.org/2000/svg" width="40" height="40" viewBox="0 0 64 64"><path d="M43.507 15.441a1.016 1.016 0 0 0-.873-.292l-11.678 1.83a.998.998 0 0 0-.372.138L21.42 15.16a.994.994 0 0 0-.927.281L8.486 27.83a3.268 3.268 0 0 0-.74 3.37l1.729 4.94a5.645 5.645 0 0 0 1.522 2.302l1.676 1.526c-.278.67-.929 2.559-.436 4.583 1.291 5.298 4.593 8.537 10.391 10.195 1.133.324 2.324.43 3.395.43a18.17 18.17 0 0 0 3.145-.282 5.558 5.558 0 0 0 3.12.975c.476 0 .956-.06 1.43-.185 6.51-1.724 10.789-5.95 12.745-12.546a.977.977 0 0 0 .62-.339l5.122-6.382c.081-.102.158-.206.231-.311l3.09-4.453a3.294 3.294 0 0 0-.339-4.16L43.507 15.44zm-20.33 37.382c-5.103-1.46-7.878-4.156-8.996-8.744-.242-.991-.08-1.969.105-2.641l12.839 11.695c-1.15.083-2.621.069-3.947-.31zm21.545-10.846a21.25 21.25 0 0 1-.936 2.739l-10.262-9.122a.995.995 0 0 0-1.41.083.999.999 0 0 0 .082 1.411l10.498 9.332c.061.055.133.085.202.122a14.955 14.955 0 0 1-1.784 2.529L30.03 39.098a1 1 0 0 0-1.338 1.486l10.995 9.895a14.47 14.47 0 0 1-2.471 1.7.973.973 0 0 0-.192-.255l-10.498-9.33a.999.999 0 1 0-1.328 1.494l10.104 8.98a19.39 19.39 0 0 1-2.092.682 3.584 3.584 0 0 1-3.344-.825L12.344 36.963a3.63 3.63 0 0 1-.98-1.483l-1.73-4.94a1.277 1.277 0 0 1 .289-1.319l11.621-11.99 11.048 2.36c.673.143 1.29.473 1.785.952l3.437 3.333a3.051 3.051 0 0 1 .92 2.485 3.053 3.053 0 0 1-1.357 2.273l-.853.567c-2.654-2.38-4.773-4.276-4.773-4.276a1 1 0 1 0-1.343 1.482l5.277 4.84c.107.097.231.169.363.212 2.658 2.384 5.661 5.08 7.578 6.813a3.657 3.657 0 0 1 1.096 3.705zm9.162-11.465l-3.091 4.454c-.049.072-.1.14-.151.203l-3.884 4.84a5.64 5.64 0 0 0-1.794-3.224 2977.111 2977.111 0 0 0-6.902-6.205l.421-.279a5.047 5.047 0 0 0 2.244-3.758 5.043 5.043 0 0 0-1.52-4.103l-3.438-3.333a5.65 5.65 0 0 0-.927-.712l7.59-1.19 11.319 11.68a1.29 1.29 0 0 1 .133 1.627zM19.507 13.239l-4.808-4.815a1.004 1.004 0 0 0-1.415-.001L.494 21.196c-.39.39-.39 1.023 0 1.415L5.3 27.425a1.004 1.004 0 0 0 1.415 0l12.79-12.771c.39-.39.39-1.024 0-1.415zM6.01 25.304l-3.395-3.4L13.99 10.546l3.395 3.4L6.01 25.305zm57.496-4.108L50.716 8.423a1.004 1.004 0 0 0-.707-.292h-.001c-.265 0-.52.106-.707.293l-4.808 4.815c-.39.391-.39 1.024.001 1.415l12.79 12.772c.188.187.443.292.707.292h.001a1 1 0 0 0 .707-.293l4.808-4.814c.39-.392.39-1.025-.001-1.415zm-5.516 4.108l-11.375-11.36 3.395-3.399 11.375 11.36-3.395 3.4z"/></svg>