<svg xmlns="http://www.w3.org/2000/svg" width="30" height="30" viewBox="0 0 381.39 381.39"><path d="M15.891 79.456h206.586c0 17.544 14.239 31.782 31.782 31.782h31.782c17.544 0 31.782-14.239 31.782-31.782h47.674c8.74 0 15.891-7.119 15.891-15.891s-7.151-15.891-15.891-15.891h-47.674c0-17.544-14.239-31.782-31.782-31.782H254.26c-17.544 0-31.782 14.239-31.782 31.782H15.891C7.119 47.674 0 54.793 0 63.565s7.119 15.891 15.891 15.891zM254.26 47.674h31.782v31.782H254.26V47.674zm111.239 127.13H158.912c0-17.544-14.239-31.782-31.782-31.782H95.347c-17.544 0-31.782 14.239-31.782 31.782H15.891C7.119 174.804 0 181.923 0 190.695s7.119 15.891 15.891 15.891h47.674c0 17.544 14.239 31.782 31.782 31.782h31.782c17.544 0 31.782-14.239 31.782-31.782h206.586c8.74 0 15.891-7.119 15.891-15.891.002-8.772-7.149-15.891-15.889-15.891zM127.13 206.586H95.347v-31.782h31.782v31.782zm238.369 95.348H254.26c0-17.544-14.239-31.782-31.782-31.782h-31.782c-17.544 0-31.782 14.239-31.782 31.782H15.891C7.119 301.934 0 309.085 0 317.825s7.119 15.891 15.891 15.891h143.021c0 17.544 14.239 31.783 31.782 31.783h31.782c17.544 0 31.782-14.239 31.782-31.783h111.239c8.74 0 15.891-7.151 15.891-15.891s-7.149-15.891-15.889-15.891zm-143.022 31.782h-31.782v-31.782h31.782v31.782z" fill="#d1d1d1"/></svg>