<svg xmlns="http://www.w3.org/2000/svg" width="30" height="30" viewBox="0 0 508.52 508.52"><path d="M254.26 0C113.845 0 0 113.845 0 254.26s113.845 254.26 254.26 254.26 254.26-113.845 254.26-254.26S394.675 0 254.26 0zM36.327 254.26c0-30.765 6.801-60.005 18.879-86.385l103.96 277.397C86.448 410.884 36.327 338.261 36.327 254.26zM254.26 466.567c-21.39 0-42.016-3.083-61.563-8.613l65.377-185.101 66.934 178.745 1.557 2.956a223.204 223.204 0 0 1-72.305 12.013zm29.971-311.818c13.094-.667 24.949-2.002 24.949-2.002 11.728-1.367 10.361-18.148-1.367-17.512 0 0-35.31 2.702-58.13 2.702-21.39 0-57.399-2.702-57.399-2.702-11.759-.667-13.126 16.813-1.398 17.512 0 0 11.124 1.335 22.852 2.002l33.975 90.612-47.706 139.334-79.329-229.914c13.158-.667 24.949-2.002 24.949-2.002 11.728-1.367 10.361-18.148-1.367-17.512 0 0-35.31 2.702-58.067 2.702l-14.016-.254c38.934-57.622 105.931-95.697 182.05-95.697 56.732 0 108.378 21.135 147.185 55.715l-2.829-.191c-21.421 0-36.582 18.148-36.582 37.662 0 17.512 10.329 32.291 21.358 49.803 8.391 14.175 17.989 32.323 17.989 58.543 0 18.148-7.151 39.22-16.559 68.65l-21.771 70.716-78.787-228.167zm79.583 282.928l66.584-187.421c12.459-30.289 16.559-54.475 16.559-76.024 0-7.818-.509-15.065-1.43-21.835 16.972 30.257 26.697 64.963 26.697 101.863-.032 78.312-43.605 146.676-108.41 183.417z" fill="#d1d1d1"/></svg>