<?xml version="1.0" encoding="iso-8859-1"?><!DOCTYPE svg PUBLIC "-//W3C//DTD SVG 1.1//EN" "http://www.w3.org/Graphics/SVG/1.1/DTD/svg11.dtd"><svg xmlns="http://www.w3.org/2000/svg" xmlns:xlink="http://www.w3.org/1999/xlink"><symbol class="asoc" id="behance-big-logo" viewBox="0 0 478.165 478.165"><style>.asoc{fill:#a4a4a4;transition:fill .25s ease;cursor:pointer}.asoc:hover{fill:#666}</style><path id="aBehance_3_" d="M431.842 132.362h-119.88v-29.706h119.88v29.706zM232.288 254.434c7.75 12.034 11.496 26.578 11.496 43.533 0 17.692-4.284 33.531-13.13 47.538-5.618 9.304-12.632 16.975-21.039 23.39-9.543 7.312-20.76 12.193-33.631 14.903-12.97 2.769-26.877 4.124-41.999 4.124H0V90.244h143.649c36.321.578 61.882 11.097 77.044 31.718 9.105 12.612 13.687 27.813 13.687 45.426 0 18.19-4.602 32.774-13.747 43.892-5.12 6.136-12.751 11.874-22.673 16.875 15.162 5.518 26.598 14.185 34.328 26.279zm-163.651-46.9h62.879c12.99 0 23.47-2.431 31.499-7.332 8.089-4.881 12.074-13.707 12.074-26.16 0-13.927-5.359-23.071-16.038-27.494-9.145-3.028-20.84-4.662-35.085-4.662H68.637v65.648zm112.528 86.189c0-15.481-6.296-26.16-18.907-31.798-7.053-3.307-17.035-5.021-29.806-5.1H68.637v79.296h62.839c12.891 0 22.912-1.793 30.124-5.18 13.03-6.536 19.565-18.988 19.565-37.218zm295.087-48.414c1.474 9.683 2.032 23.968 1.893 42.337H323.04c.677 21.478 8.129 36.38 22.155 44.868 8.408 5.459 18.688 8.209 30.742 8.209 12.651 0 22.912-3.267 30.901-9.743 4.523-3.646 8.248-8.388 11.595-14.823h56.862c-1.674 12.651-8.368 25.582-20.78 38.652-19.107 20.621-45.804 30.961-80.073 30.961-28.411 0-53.535-8.627-75.132-26.18-21.557-17.393-32.615-45.864-32.615-85.153 0-37.058 9.763-65.489 29.387-85.133 19.605-19.764 44.908-29.547 76.188-29.547 18.609 0 35.344 3.347 50.227 9.962 14.943 6.694 27.136 17.214 36.639 31.539 8.788 12.771 14.466 27.435 17.116 44.051zm-55.985 5.519c-.996-14.803-6.037-26-14.903-33.571-8.866-7.71-20.023-11.615-33.073-11.615-14.205 0-25.343 4.144-33.232 12.153-7.89 8.129-12.751 19.107-14.863 32.993l96.071.04z"/></symbol><symbol viewBox="0 0 64 64" id="briefcase"><path d="M64.025 14.981a.972.972 0 0 0-.06-.297 3.994 3.994 0 0 0-3.99-3.9h-15V8.55c0-2.942-2.29-5.335-5.105-5.335H24.08c-2.815 0-5.105 2.393-5.105 5.335v2.235h-15a4 4 0 0 0-4 4v42a4 4 0 0 0 4 4h56a4 4 0 0 0 4-4V15.932c.016-.317.05-.63.05-.95zM20.975 8.55c0-1.838 1.394-3.335 3.106-3.335H39.87c1.711 0 3.105 1.497 3.105 3.335v2.235h-22V8.55zm-17 4.235h15v4.43a1 1 0 1 0 2 0v-4.43h22v4.43a1 1 0 1 0 2 0v-4.43h15c1.103 0 2 .897 2 2v1.402c-.647 8.815-8.282 15.801-17.598 15.801H19.686c-9.738 0-17.661-7.629-17.661-17.007 0-.081-.028-.154-.046-.23a2 2 0 0 1 1.996-1.966zm25.553 21.314h5.007v3.75a.137.137 0 0 1-.136.136h-4.734a.137.137 0 0 1-.137-.137V34.1zm-5.878 0h4.382v3.75c0 .901.73 1.632 1.633 1.632h4.734c.902 0 1.633-.731 1.633-1.633V34.1h4.381v6.145a1.62 1.62 0 0 1-1.618 1.619H25.268a1.62 1.62 0 0 1-1.618-1.619V34.1zm38.325 22.686c0 1.102-.897 2-2 2h-56c-1.103 0-2-.898-2-2V23.149c3.167 6.39 9.905 10.825 17.711 10.825h2.346v6.27a3.237 3.237 0 0 0 3.236 3.237h13.527a3.237 3.237 0 0 0 3.237-3.237v-6.27h2.345c7.714 0 14.385-4.33 17.598-10.598v33.409z"/></symbol><symbol viewBox="0 0 508.52 508.52" id="check-button"><g fill="#010002"><path d="M254.26 0C113.845 0 0 113.845 0 254.26s113.845 254.26 254.26 254.26 254.26-113.845 254.26-254.26S394.675 0 254.26 0zm0 476.737c-122.68 0-222.477-99.829-222.477-222.477 0-122.68 99.797-222.477 222.477-222.477 122.649 0 222.477 99.797 222.477 222.477 0 122.648-99.892 222.477-222.477 222.477z"/><path d="M365.626 153.128c-10.234-6.738-24.059-3.846-30.797 6.452L227.531 323.546l-51.297-47.483c-9.026-8.327-23.106-7.787-31.465 1.24s-7.787 23.074 1.24 31.433l70.907 65.567.826.54 1.684 1.716 3.051 1.176 3.655 1.494 3.719.604 5.339-.064 2.161-.54 6.229-2.606.985-.667 3.814-2.765 1.78-2.956.095-.127 121.79-186.086c6.74-10.363 3.847-24.156-6.418-30.894z"/></g></symbol><symbol viewBox="0 0 487.334 487.334" id="circular-light-bulb"><g fill="#d1d1d1"><path d="M243.667 0C143.106 0 61.27 81.835 61.27 182.397c0 58.793 28.576 114.302 76.485 148.501l2.25 1.49c11.126 6.536 12.221 27.572 11.977 31.433l-.061 1.915v59.857c0 11.43 6.384 21.857 16.568 27.086l61.346 31.311a30.422 30.422 0 0 0 13.832 3.344c4.682 0 9.393-1.094 13.71-3.253l62.076-31.342a30.374 30.374 0 0 0 16.689-27.147V366.07c0-30.004 18.331-39.915 18.483-39.975l6.749-4.347c41.13-34.807 64.69-85.544 64.69-139.351C426.064 81.835 344.259 0 243.667 0zm0 456.934l-61.316-31.342h123.391l-62.075 31.342zm62.045-90.864v29.123H182.321v-29.457l.03-.942h123.483l-.122 1.276zm36.054-67.547s-20.368 9.515-30.46 35.871H177.457c-3.77-10.518-10.305-21.34-22.04-28.272-38.577-27.511-63.747-72.684-63.747-123.725C91.67 98.464 159.734 30.4 243.667 30.4c83.963 0 151.997 68.064 151.997 151.997 0 46.572-20.945 88.219-53.898 116.126z"/><path d="M258.867 60.799c-8.36 0-15.2 6.809-15.2 15.2s6.84 15.2 15.2 15.2c34.199 0 75.999 31.099 75.999 77.427 0 8.39 6.84 15.2 15.2 15.2s15.2-6.809 15.2-15.2c-.001-69.341-54.143-107.827-106.399-107.827z"/></g></symbol><symbol viewBox="0 0 508.52 508.52" id="closed-lock-"><g fill="#010002"><path d="M444.955 190.695h-31.783V161.36C413.172 72.242 342.043 0 254.26 0 166.508 0 95.347 72.242 95.347 161.36v29.335H63.565c-17.544 0-31.782 14.239-31.782 31.782v254.26c0 17.544 14.239 31.782 31.782 31.782h381.39c17.544 0 31.782-14.239 31.782-31.782v-254.26c0-17.544-14.238-31.782-31.782-31.782zM127.13 161.36c0-71.447 57.018-129.577 127.13-129.577s127.13 58.13 127.13 129.577v29.335H127.13V161.36zm317.825 315.377H63.565v-254.26h381.39v254.26z"/><path d="M254.26 413.172c35.12 0 63.565-28.445 63.565-63.565s-28.445-63.565-63.565-63.565-63.565 28.445-63.565 63.565 28.445 63.565 63.565 63.565zm0-95.347c17.512 0 31.782 14.27 31.782 31.783 0 17.512-14.27 31.782-31.782 31.782s-31.782-14.27-31.782-31.782c-.001-17.513 14.27-31.783 31.782-31.783z"/></g></symbol><symbol viewBox="0 0 508.52 508.52" id="computer-screen"><path d="M476.737 31.782H31.782C14.239 31.782 0 46.021 0 63.565v286.042c0 17.544 14.239 31.782 31.782 31.782h158.881c-.064 22.979-.985 52.822-9.694 63.565h-6.42c-8.645 0-15.637 7.151-15.637 15.891s6.992 15.891 15.637 15.891h159.389c8.645 0 15.669-7.151 15.669-15.891s-7.024-15.891-15.637-15.891h-6.388c-8.708-10.742-9.662-40.586-9.725-63.565h158.881c17.544 0 31.782-14.239 31.782-31.782V63.565c0-17.544-14.239-31.783-31.783-31.783zm0 286.043H31.782V63.565h444.955v254.26z" fill="#d1d1d1"/></symbol><symbol class="gfb" viewBox="0 0 24 24" id="facebook-box"><style>.gfb{fill:#a4a4a4;transition:fill .25s ease;cursor:pointer}.gfb:hover{fill:#666}</style><path d="M19 4v3h-2a1 1 0 0 0-1 1v2h3v3h-3v7h-3v-7h-2v-3h2V7.5C13 5.56 14.57 4 16.5 4M20 2H4a2 2 0 0 0-2 2v16a2 2 0 0 0 2 2h16a2 2 0 0 0 2-2V4a2 2 0 0 0-2-2z"/></symbol><symbol viewBox="0 0 64 64" id="handshake"><path d="M43.507 15.441a1.016 1.016 0 0 0-.873-.292l-11.678 1.83a.998.998 0 0 0-.372.138L21.42 15.16a.994.994 0 0 0-.927.281L8.486 27.83a3.268 3.268 0 0 0-.74 3.37l1.729 4.94a5.645 5.645 0 0 0 1.522 2.302l1.676 1.526c-.278.67-.929 2.559-.436 4.583 1.291 5.298 4.593 8.537 10.391 10.195 1.133.324 2.324.43 3.395.43 1.382 0 2.552-.175 3.145-.282a5.558 5.558 0 0 0 3.12.975c.476 0 .956-.06 1.43-.185 6.51-1.724 10.789-5.95 12.745-12.546a.977.977 0 0 0 .62-.339l5.122-6.382c.081-.102.158-.206.231-.311l3.09-4.453a3.294 3.294 0 0 0-.339-4.16L43.507 15.44zm-20.33 37.382c-5.103-1.46-7.878-4.156-8.996-8.744-.242-.991-.08-1.969.105-2.641l12.839 11.695c-1.15.083-2.621.069-3.947-.31zm21.545-10.846c-.26.974-.577 1.882-.936 2.739l-10.262-9.122a.995.995 0 0 0-1.41.083.999.999 0 0 0 .082 1.411l10.498 9.332c.061.055.133.085.202.122a14.955 14.955 0 0 1-1.784 2.529L30.03 39.098a1 1 0 0 0-1.338 1.486l10.995 9.895a14.47 14.47 0 0 1-2.471 1.7.973.973 0 0 0-.192-.255l-10.498-9.33a.999.999 0 1 0-1.328 1.494l10.104 8.98a19.39 19.39 0 0 1-2.092.682 3.584 3.584 0 0 1-3.344-.825L12.344 36.963a3.63 3.63 0 0 1-.98-1.483l-1.73-4.94a1.277 1.277 0 0 1 .289-1.319l11.621-11.99 11.048 2.36c.673.143 1.29.473 1.785.952l3.437 3.333c.671.65 1.006 1.555.92 2.485a3.053 3.053 0 0 1-1.357 2.273l-.853.567c-2.654-2.38-4.773-4.276-4.773-4.276a1 1 0 1 0-1.343 1.482l5.277 4.84c.107.097.231.169.363.212 2.658 2.384 5.661 5.08 7.578 6.813a3.657 3.657 0 0 1 1.096 3.705zm9.162-11.465l-3.091 4.454c-.049.072-.1.14-.151.203l-3.884 4.84a5.64 5.64 0 0 0-1.794-3.224 2977.111 2977.111 0 0 0-6.902-6.205l.421-.279a5.047 5.047 0 0 0 2.244-3.758 5.043 5.043 0 0 0-1.52-4.103l-3.438-3.333a5.65 5.65 0 0 0-.927-.712l7.59-1.19 11.319 11.68a1.29 1.29 0 0 1 .133 1.627zM19.507 13.239l-4.808-4.815a1.004 1.004 0 0 0-1.415-.001L.494 21.196c-.39.39-.39 1.023 0 1.415L5.3 27.425a1.004 1.004 0 0 0 1.415 0l12.79-12.771c.39-.39.39-1.024 0-1.415zM6.01 25.304l-3.395-3.4L13.99 10.546l3.395 3.4L6.01 25.305zM63.506 21.196L50.716 8.423a1.004 1.004 0 0 0-.707-.292h-.001c-.265 0-.52.106-.707.293l-4.808 4.815c-.39.391-.39 1.024.001 1.415l12.79 12.772c.188.187.443.292.707.292h.001a1 1 0 0 0 .707-.293l4.808-4.814c.39-.392.39-1.025-.001-1.415zm-5.516 4.108l-11.375-11.36 3.395-3.399 11.375 11.36-3.395 3.4z"/></symbol><symbol viewBox="0 0 508.52 508.52" id="high-volume-outline"><g fill="#010002"><path d="M271.327.095L268.975 0c-5.244 0-11.251 1.621-18.148 5.784 0 0-132.533 115.625-138.286 121.346H39.728c-17.544 0-31.782 14.239-31.782 31.782v194.731c0 17.576 14.239 31.783 31.782 31.783h72.814c5.753 5.721 138.286 117.246 138.286 117.246 6.897 4.227 12.904 5.848 18.148 5.848l2.352-.095c11.759-1.112 20.15-10.965 22.661-21.358V21.485c-2.48-10.425-10.902-20.277-22.662-21.39zm-9.122 470.699c-49.581-41.762-121.409-102.499-127.257-107.902-5.943-5.975-14.016-9.249-22.438-9.249H39.728V158.912h72.814c8.136 0 16.273-3.401 22.152-8.994 5.784-5.498 77.613-68.332 127.511-111.874v432.75zM342.965 309.784c-7.85 3.973-10.997 13.508-7.087 21.358a15.957 15.957 0 0 0 14.207 8.708c2.352 0 4.767-.572 7.151-1.684 32.132-16.241 52.091-48.341 52.091-83.969s-19.959-67.728-52.091-83.938c-7.85-3.973-17.385-.795-21.358 7.056-3.909 7.85-.763 17.385 7.087 21.358 21.326 10.774 34.579 32.037 34.579 55.556s-13.253 44.812-34.579 55.555z"/><path d="M339.723 59.306c-8.486-1.716-17.004 3.941-18.625 12.554-1.716 8.613 3.909 16.972 12.554 18.656 78.312 15.256 135.139 84.128 135.139 163.743s-56.827 148.488-135.139 163.743a15.875 15.875 0 0 0-12.554 18.656c1.494 7.596 8.136 12.808 15.51 12.808l3.115-.318c93.218-18.116 160.851-100.115 160.851-194.922 0-94.742-67.633-176.74-160.851-194.92z"/></g></symbol><symbol viewBox="0 0 381.39 381.39" id="levels-adjustment"><g fill="#d1d1d1"><path d="M15.891 79.456h206.586c0 17.544 14.239 31.782 31.782 31.782h31.782c17.544 0 31.782-14.239 31.782-31.782h47.674c8.74 0 15.891-7.119 15.891-15.891s-7.151-15.891-15.891-15.891h-47.674c0-17.544-14.239-31.782-31.782-31.782H254.26c-17.544 0-31.782 14.239-31.782 31.782H15.891C7.119 47.674 0 54.793 0 63.565s7.119 15.891 15.891 15.891zM254.26 47.674h31.782v31.782H254.26V47.674zM365.499 174.804H158.912c0-17.544-14.239-31.782-31.782-31.782H95.347c-17.544 0-31.782 14.239-31.782 31.782H15.891C7.119 174.804 0 181.923 0 190.695s7.119 15.891 15.891 15.891h47.674c0 17.544 14.239 31.782 31.782 31.782h31.782c17.544 0 31.782-14.239 31.782-31.782h206.586c8.74 0 15.891-7.119 15.891-15.891.002-8.772-7.149-15.891-15.889-15.891zM127.13 206.586H95.347v-31.782h31.782v31.782zM365.499 301.934H254.26c0-17.544-14.239-31.782-31.782-31.782h-31.782c-17.544 0-31.782 14.239-31.782 31.782H15.891C7.119 301.934 0 309.085 0 317.825s7.119 15.891 15.891 15.891h143.021c0 17.544 14.239 31.783 31.782 31.783h31.782c17.544 0 31.782-14.239 31.782-31.783h111.239c8.74 0 15.891-7.151 15.891-15.891s-7.149-15.891-15.889-15.891zm-143.022 31.782h-31.782v-31.782h31.782v31.782z"/></g></symbol><symbol viewBox="0 0 317.825 317.825" id="menu-lines"><g fill="#757575"><path d="M301.934 143.021H15.891C7.119 143.021 0 150.14 0 158.912s7.119 15.891 15.891 15.891h286.042c8.74 0 15.891-7.119 15.891-15.891.001-8.772-7.15-15.891-15.89-15.891zM15.891 79.456h286.042c8.74 0 15.891-7.119 15.891-15.891s-7.151-15.891-15.891-15.891H15.891C7.119 47.674 0 54.793 0 63.565s7.119 15.891 15.891 15.891zM301.934 238.369H15.891C7.119 238.369 0 245.52 0 254.26s7.119 15.891 15.891 15.891h286.042c8.74 0 15.891-7.151 15.891-15.891.001-8.74-7.15-15.891-15.89-15.891z"/></g></symbol><symbol viewBox="0 0 64 64" id="notepad"><path d="M23 27.051h18a1.052 1.052 0 1 0 0-2.103H23a1.052 1.052 0 1 0 0 2.103zM23 37.051h18a1.052 1.052 0 1 0 0-2.103H23a1.052 1.052 0 1 0 0 2.103zM23 47.051h18a1.052 1.052 0 1 0 0-2.103H23a1.052 1.052 0 1 0 0 2.103z"/><path d="M49.33 19.284a1 1 0 0 0-1 1v33h-32v-33a1 1 0 1 0-2 0v34a1 1 0 0 0 1 1h34a1 1 0 0 0 1-1v-34a1 1 0 0 0-1-1z"/><path d="M53.007 10.551H47v-5.51h-8.042a3.748 3.748 0 0 0-.709-2.811c-1-1.343-2.865-2.086-5.545-2.21-3.274-.147-5.562.514-6.788 1.976a3.96 3.96 0 0 0-.88 3.045H17v5.51h-6.007C8.24 10.551 6 12.795 6 15.553v43.444C6 61.755 8.24 64 10.993 64h42.014C55.76 64 58 61.755 58 58.997V15.553c0-2.758-2.24-5.002-4.993-5.002zM27.47 3.257c.558-.646 1.908-1.39 5.142-1.238 2 .092 3.388.568 4.013 1.379.5.65.358 1.344.356 1.36l-.07.283h-9.843l-.048-.248a1.928 1.928 0 0 1 .45-1.536zM19 7.041h26v8H19v-8zm37 51.956A3.001 3.001 0 0 1 53.007 62H10.993A3.001 3.001 0 0 1 8 58.997V15.553a3.001 3.001 0 0 1 2.993-3.002H17v4.49h30v-4.49h6.007A3.001 3.001 0 0 1 56 15.553v43.444z"/></symbol><symbol viewBox="0 0 64 64" id="trophy"><path d="M58.314 9.238c-1.826-1.856-4.651-2.201-6.242-2.236.18-1.947.287-3.947.31-5.99L52.394 0H11.609l.012 1.011c.023 2.044.13 4.044.31 5.992-1.59.034-4.417.379-6.245 2.235-1.338 1.358-1.884 3.227-1.622 5.557.817 7.264 6.969 9.997 12.268 10.186 2.494 5.647 5.834 9.892 9.67 12.08V51h-.51a3.71 3.71 0 0 0-3.01 1.548l-5.539 7.732a2.34 2.34 0 0 0-.183 2.443 2.336 2.336 0 0 0 2.086 1.277h26.347c.873 0 1.66-.483 2.052-1.255a2.303 2.303 0 0 0-.176-2.404l-5.56-7.76A3.788 3.788 0 0 0 38.437 51h-.434V37.06c3.836-2.187 7.175-6.432 9.67-12.079 5.298-.19 11.447-2.925 12.265-10.186.261-2.33-.285-4.199-1.623-5.557zm-18.43 44.509l5.558 7.757c.07.097.08.222.023.33a.302.302 0 0 1-.272.166H18.846a.348.348 0 0 1-.277-.553l5.537-7.734A1.71 1.71 0 0 1 25.491 53h12.945c.572 0 1.114.28 1.448.747zM6.052 14.57c-.195-1.72.15-3.005 1.054-3.925 1.398-1.425 3.807-1.636 5.04-1.645.62 5.118 1.77 9.82 3.336 13.904-2.88-.326-8.694-1.795-9.43-8.334zM36.002 51h-8V37.993c1.292.475 2.629.727 4 .727s2.708-.252 4-.727V51zm-4-14.28C22.259 36.72 14.127 21.237 13.64 2h36.723c-.487 19.237-8.619 34.72-18.361 34.72zm25.946-22.15c-.736 6.538-6.546 8.007-9.427 8.334 1.565-4.084 2.716-8.785 3.337-13.902 1.233.008 3.64.22 5.037 1.644.903.92 1.248 2.204 1.053 3.925z"/><path d="M44.002 7h-24a1 1 0 1 0 0 2h24a1 1 0 1 0 0-2z"/></symbol><symbol class="nsoc" viewBox="0 0 24 24" id="twitter"><style>.nsoc{fill:#a4a4a4;transition:fill .25s ease;cursor:pointer}.nsoc:hover{fill:#666}</style><path d="M22.46 6c-.77.35-1.6.58-2.46.69.88-.53 1.56-1.37 1.88-2.38-.83.5-1.75.85-2.72 1.05C18.37 4.5 17.26 4 16 4c-2.35 0-4.27 1.92-4.27 4.29 0 .34.04.67.11.98C8.28 9.09 5.11 7.38 3 4.79c-.37.63-.58 1.37-.58 2.15 0 1.49.75 2.81 1.91 3.56-.71 0-1.37-.2-1.95-.5v.03c0 2.08 1.48 3.82 3.44 4.21a4.22 4.22 0 0 1-1.93.07 4.28 4.28 0 0 0 4 2.98 8.521 8.521 0 0 1-5.33 1.84c-.34 0-.68-.02-1.02-.06C3.44 20.29 5.7 21 8.12 21 16 21 20.33 14.46 20.33 8.79c0-.19 0-.37-.01-.56.84-.6 1.56-1.36 2.14-2.23z"/></symbol><symbol viewBox="0 0 508.52 508.52" id="wordpress-logo"><path d="M254.26 0C113.845 0 0 113.845 0 254.26s113.845 254.26 254.26 254.26 254.26-113.845 254.26-254.26S394.675 0 254.26 0zM36.327 254.26c0-30.765 6.801-60.005 18.879-86.385l103.96 277.397C86.448 410.884 36.327 338.261 36.327 254.26zM254.26 466.567c-21.39 0-42.016-3.083-61.563-8.613l65.377-185.101 66.934 178.745 1.557 2.956a223.204 223.204 0 0 1-72.305 12.013zm29.971-311.818c13.094-.667 24.949-2.002 24.949-2.002 11.728-1.367 10.361-18.148-1.367-17.512 0 0-35.31 2.702-58.13 2.702-21.39 0-57.399-2.702-57.399-2.702-11.759-.667-13.126 16.813-1.398 17.512 0 0 11.124 1.335 22.852 2.002l33.975 90.612-47.706 139.334-79.329-229.914c13.158-.667 24.949-2.002 24.949-2.002 11.728-1.367 10.361-18.148-1.367-17.512 0 0-35.31 2.702-58.067 2.702l-14.016-.254c38.934-57.622 105.931-95.697 182.05-95.697 56.732 0 108.378 21.135 147.185 55.715l-2.829-.191c-21.421 0-36.582 18.148-36.582 37.662 0 17.512 10.329 32.291 21.358 49.803 8.391 14.175 17.989 32.323 17.989 58.543 0 18.148-7.151 39.22-16.559 68.65l-21.771 70.716-78.787-228.167zm79.583 282.928l66.584-187.421c12.459-30.289 16.559-54.475 16.559-76.024 0-7.818-.509-15.065-1.43-21.835 16.972 30.257 26.697 64.963 26.697 101.863-.032 78.312-43.605 146.676-108.41 183.417z" fill="#d1d1d1"/></symbol></svg>