<svg class="soc" id="Capa_1" xmlns="http://www.w3.org/2000/svg" width="14" height="14" viewBox="0 0 478.165 478.165"><style>.soc{fill:#a4a4a4;transition:fill .25s ease;cursor:pointer}.soc:hover{fill:#666}</style><path id="Behance_3_" d="M431.842 132.362h-119.88v-29.706h119.88v29.706zM232.288 254.434c7.75 12.034 11.496 26.578 11.496 43.533 0 17.692-4.284 33.531-13.13 47.538-5.618 9.304-12.632 16.975-21.039 23.39-9.543 7.312-20.76 12.193-33.631 14.903-12.97 2.769-26.877 4.124-41.999 4.124H0V90.244h143.649c36.321.578 61.882 11.097 77.044 31.718 9.105 12.612 13.687 27.813 13.687 45.426 0 18.19-4.602 32.774-13.747 43.892-5.12 6.136-12.751 11.874-22.673 16.875 15.162 5.518 26.598 14.185 34.328 26.279zm-163.651-46.9h62.879c12.99 0 23.47-2.431 31.499-7.332 8.089-4.881 12.074-13.707 12.074-26.16 0-13.927-5.359-23.071-16.038-27.494-9.145-3.028-20.84-4.662-35.085-4.662H68.637v65.648zm112.528 86.189c0-15.481-6.296-26.16-18.907-31.798-7.053-3.307-17.035-5.021-29.806-5.1H68.637v79.296h62.839c12.891 0 22.912-1.793 30.124-5.18 13.03-6.536 19.565-18.988 19.565-37.218zm295.087-48.414c1.474 9.683 2.032 23.968 1.893 42.337H323.04c.677 21.478 8.129 36.38 22.155 44.868 8.408 5.459 18.688 8.209 30.742 8.209 12.651 0 22.912-3.267 30.901-9.743 4.523-3.646 8.248-8.388 11.595-14.823h56.862c-1.674 12.651-8.368 25.582-20.78 38.652-19.107 20.621-45.804 30.961-80.073 30.961-28.411 0-53.535-8.627-75.132-26.18-21.557-17.393-32.615-45.864-32.615-85.153 0-37.058 9.763-65.489 29.387-85.133 19.605-19.764 44.908-29.547 76.188-29.547 18.609 0 35.344 3.347 50.227 9.962 14.943 6.694 27.136 17.214 36.639 31.539 8.788 12.771 14.466 27.435 17.116 44.051zm-55.985 5.519c-.996-14.803-6.037-26-14.903-33.571-8.866-7.71-20.023-11.615-33.073-11.615-14.205 0-25.343 4.144-33.232 12.153-7.89 8.129-12.751 19.107-14.863 32.993l96.071.04z"/></svg>