<svg xmlns="http://www.w3.org/2000/svg" width="20" height="20" viewBox="0 0 508.52 508.52"><g fill="#010002"><path d="M444.955 190.695h-31.783V161.36C413.172 72.242 342.043 0 254.26 0 166.508 0 95.347 72.242 95.347 161.36v29.335H63.565c-17.544 0-31.782 14.239-31.782 31.782v254.26c0 17.544 14.239 31.782 31.782 31.782h381.39c17.544 0 31.782-14.239 31.782-31.782v-254.26c0-17.544-14.238-31.782-31.782-31.782zM127.13 161.36c0-71.447 57.018-129.577 127.13-129.577s127.13 58.13 127.13 129.577v29.335H127.13V161.36zm317.825 315.377H63.565v-254.26h381.39v254.26z"/><path d="M254.26 413.172c35.12 0 63.565-28.445 63.565-63.565s-28.445-63.565-63.565-63.565-63.565 28.445-63.565 63.565 28.445 63.565 63.565 63.565zm0-95.347c17.512 0 31.782 14.27 31.782 31.783 0 17.512-14.27 31.782-31.782 31.782s-31.782-14.27-31.782-31.782c-.001-17.513 14.27-31.783 31.782-31.783z"/></g></svg>