<svg xmlns="http://www.w3.org/2000/svg" width="40" height="40" viewBox="0 0 64 64"><path d="M23 27.051h18a1.052 1.052 0 1 0 0-2.103H23a1.052 1.052 0 1 0 0 2.103zm0 10h18a1.052 1.052 0 1 0 0-2.103H23a1.052 1.052 0 1 0 0 2.103zm0 10h18a1.052 1.052 0 1 0 0-2.103H23a1.052 1.052 0 1 0 0 2.103z"/><path d="M49.33 19.284a1 1 0 0 0-1 1v33h-32v-33a1 1 0 1 0-2 0v34a1 1 0 0 0 1 1h34a1 1 0 0 0 1-1v-34a1 1 0 0 0-1-1z"/><path d="M53.007 10.551H47v-5.51h-8.042a3.748 3.748 0 0 0-.709-2.811c-1-1.343-2.865-2.086-5.545-2.21-3.274-.147-5.562.514-6.788 1.976a3.96 3.96 0 0 0-.88 3.045H17v5.51h-6.007C8.24 10.551 6 12.795 6 15.553v43.444C6 61.755 8.24 64 10.993 64h42.014C55.76 64 58 61.755 58 58.997V15.553c0-2.758-2.24-5.002-4.993-5.002zM27.47 3.257c.558-.646 1.908-1.39 5.142-1.238 2 .092 3.388.568 4.013 1.379.5.65.358 1.344.356 1.36l-.07.283h-9.843l-.048-.248a1.928 1.928 0 0 1 .45-1.536zM19 7.041h26v8H19v-8zm37 51.956A3.001 3.001 0 0 1 53.007 62H10.993A3.001 3.001 0 0 1 8 58.997V15.553a3.001 3.001 0 0 1 2.993-3.002H17v4.49h30v-4.49h6.007A3.001 3.001 0 0 1 56 15.553v43.444z"/></svg>